<svg width="154" height="15" viewBox="0 0 154 15" fill="none" xmlns="http://www.w3.org/2000/svg">
<path d="M0.04 14.5L6.44 0.499999H7.9L14.3 14.5H12.74L6.86 1.36H7.46L1.58 14.5H0.04ZM2.56 10.76L3 9.56H11.14L11.58 10.76H2.56ZM21.963 14.62C20.1763 14.62 18.7696 14.1067 17.743 13.08C16.7163 12.0533 16.203 10.5333 16.203 8.52V0.499999H17.683V8.46C17.683 10.1133 18.0563 11.3333 18.803 12.12C19.5496 12.9067 20.603 13.3 21.963 13.3C23.3363 13.3 24.3963 12.9067 25.143 12.12C25.8896 11.3333 26.263 10.1133 26.263 8.46V0.499999H27.703V8.52C27.703 10.5333 27.1896 12.0533 26.163 13.08C25.1496 14.1067 23.7496 14.62 21.963 14.62ZM34.6094 14.5V1.78H29.6894V0.499999H41.0094V1.78H36.0894V14.5H34.6094ZM49.2984 14.62C48.2451 14.62 47.2651 14.4467 46.3584 14.1C45.4651 13.74 44.6851 13.24 44.0184 12.6C43.3651 11.9467 42.8518 11.1933 42.4784 10.34C42.1184 9.47333 41.9384 8.52667 41.9384 7.5C41.9384 6.47333 42.1184 5.53333 42.4784 4.68C42.8518 3.81333 43.3651 3.06 44.0184 2.42C44.6851 1.76667 45.4651 1.26667 46.3584 0.92C47.2518 0.559999 48.2318 0.379999 49.2984 0.379999C50.3518 0.379999 51.3251 0.559999 52.2184 0.92C53.1118 1.26667 53.8851 1.76 54.5384 2.4C55.2051 3.04 55.7184 3.79333 56.0784 4.66C56.4518 5.52667 56.6384 6.47333 56.6384 7.5C56.6384 8.52667 56.4518 9.47333 56.0784 10.34C55.7184 11.2067 55.2051 11.96 54.5384 12.6C53.8851 13.24 53.1118 13.74 52.2184 14.1C51.3251 14.4467 50.3518 14.62 49.2984 14.62ZM49.2984 13.3C50.1384 13.3 50.9118 13.16 51.6184 12.88C52.3384 12.5867 52.9584 12.18 53.4784 11.66C54.0118 11.1267 54.4251 10.5133 54.7184 9.82C55.0118 9.11333 55.1584 8.34 55.1584 7.5C55.1584 6.66 55.0118 5.89333 54.7184 5.2C54.4251 4.49333 54.0118 3.88 53.4784 3.36C52.9584 2.82667 52.3384 2.42 51.6184 2.14C50.9118 1.84667 50.1384 1.7 49.2984 1.7C48.4584 1.7 47.6784 1.84667 46.9584 2.14C46.2384 2.42 45.6118 2.82667 45.0784 3.36C44.5584 3.88 44.1451 4.49333 43.8384 5.2C43.5451 5.89333 43.3984 6.66 43.3984 7.5C43.3984 8.32667 43.5451 9.09333 43.8384 9.8C44.1451 10.5067 44.5584 11.1267 45.0784 11.66C45.6118 12.18 46.2384 12.5867 46.9584 12.88C47.6784 13.16 48.4584 13.3 49.2984 13.3ZM57.5205 14.5L63.9205 0.499999H65.3805L71.7805 14.5H70.2205L64.3405 1.36H64.9405L59.0605 14.5H57.5205ZM60.0405 10.76L60.4805 9.56H68.6205L69.0605 10.76H60.0405ZM74.0964 14.5V0.499999H75.3164L81.7164 11.42H81.0764L87.4164 0.499999H88.6364V14.5H87.2164V2.72H87.5564L81.7164 12.72H81.0164L75.1364 2.72H75.5164V14.5H74.0964ZM94.518 6.76H101.918V8.02H94.518V6.76ZM94.678 13.22H103.098V14.5H93.198V0.499999H102.798V1.78H94.678V13.22ZM106.577 14.5V0.499999H111.817C113.004 0.499999 114.024 0.693333 114.877 1.08C115.73 1.45333 116.384 2 116.837 2.72C117.304 3.42667 117.537 4.28667 117.537 5.3C117.537 6.28667 117.304 7.14 116.837 7.86C116.384 8.56667 115.73 9.11333 114.877 9.5C114.024 9.87333 113.004 10.06 111.817 10.06H107.397L108.057 9.38V14.5H106.577ZM116.137 14.5L112.537 9.42H114.137L117.757 14.5H116.137ZM108.057 9.5L107.397 8.8H111.777C113.177 8.8 114.237 8.49333 114.957 7.88C115.69 7.26667 116.057 6.40667 116.057 5.3C116.057 4.18 115.69 3.31333 114.957 2.7C114.237 2.08667 113.177 1.78 111.777 1.78H107.397L108.057 1.08V9.5ZM121.03 14.5V0.499999H122.51V14.5H121.03ZM133.145 14.62C132.092 14.62 131.118 14.4467 130.225 14.1C129.332 13.74 128.558 13.24 127.905 12.6C127.252 11.96 126.738 11.2067 126.365 10.34C126.005 9.47333 125.825 8.52667 125.825 7.5C125.825 6.47333 126.005 5.52667 126.365 4.66C126.738 3.79333 127.252 3.04 127.905 2.4C128.572 1.76 129.352 1.26667 130.245 0.92C131.138 0.559999 132.112 0.379999 133.165 0.379999C134.178 0.379999 135.132 0.553333 136.025 0.9C136.918 1.23333 137.672 1.74 138.285 2.42L137.345 3.36C136.772 2.77333 136.138 2.35333 135.445 2.1C134.752 1.83333 134.005 1.7 133.205 1.7C132.365 1.7 131.585 1.84667 130.865 2.14C130.145 2.42 129.518 2.82667 128.985 3.36C128.452 3.88 128.032 4.49333 127.725 5.2C127.432 5.89333 127.285 6.66 127.285 7.5C127.285 8.34 127.432 9.11333 127.725 9.82C128.032 10.5133 128.452 11.1267 128.985 11.66C129.518 12.18 130.145 12.5867 130.865 12.88C131.585 13.16 132.365 13.3 133.205 13.3C134.005 13.3 134.752 13.1667 135.445 12.9C136.138 12.6333 136.772 12.2067 137.345 11.62L138.285 12.56C137.672 13.24 136.918 13.7533 136.025 14.1C135.132 14.4467 134.172 14.62 133.145 14.62ZM138.849 14.5L145.249 0.499999H146.709L153.109 14.5H151.549L145.669 1.36H146.269L140.389 14.5H138.849ZM141.369 10.76L141.809 9.56H149.949L150.389 10.76H141.369Z" fill="black"/>
</svg>
